<?xml version="1.0" encoding="UTF-8" ?>
<!DOCTYPE svg PUBLIC "-//W3C//DTD SVG 1.1//EN" "http://www.w3.org/Graphics/SVG/1.1/DTD/svg11.dtd">
<svg width="486pt" height="518pt" viewBox="0 0 486 518" version="1.1" xmlns="http://www.w3.org/2000/svg">
<g id="#241f21ff">
<path fill="#241f21" opacity="1.00" d=" M 0.00 0.00 L 0.06 0.00 C 0.05 0.02 0.02 0.05 0.00 0.06 L 0.00 0.00 Z" />
</g>
<g id="#ffffffff">
<path fill="#ffffff" opacity="1.00" d=" M 231.50 113.61 C 259.59 111.96 288.12 117.86 313.07 130.92 C 342.74 146.15 367.18 171.25 381.81 201.20 C 397.77 233.53 401.89 271.46 393.48 306.50 C 384.49 344.71 360.42 379.04 327.68 400.67 C 296.33 421.59 257.23 430.68 219.89 425.30 C 173.98 419.53 131.72 391.66 107.59 352.28 C 88.00 320.56 80.12 281.68 86.44 244.89 C 92.89 202.47 118.27 163.59 153.90 139.83 C 176.83 124.37 203.93 115.37 231.50 113.61 M 166.39 201.42 C 159.21 202.27 153.07 208.68 152.72 215.96 C 151.56 224.88 159.14 233.77 168.20 233.63 C 216.79 233.68 265.38 233.66 313.96 233.64 C 321.49 233.63 328.35 227.50 329.24 220.03 C 331.10 210.86 323.33 201.14 313.92 201.29 C 264.75 201.36 215.56 201.10 166.39 201.42 M 155.29 261.28 C 151.44 267.08 151.76 275.37 156.24 280.74 C 158.24 283.30 161.21 284.76 164.01 286.26 C 169.66 286.76 175.34 286.47 181.00 286.57 C 225.01 286.57 269.02 286.58 313.04 286.57 C 321.04 287.05 328.62 280.35 329.33 272.40 C 330.57 264.29 324.69 255.93 316.63 254.44 C 306.12 253.67 295.54 254.99 285.06 253.85 C 261.70 253.94 238.35 253.87 215.00 253.89 C 199.67 253.73 184.38 254.49 169.05 254.24 C 163.60 253.83 158.33 256.85 155.29 261.28 M 153.02 326.93 C 154.06 333.04 159.28 337.31 164.82 339.36 C 214.21 339.75 263.61 339.40 313.00 339.54 C 321.13 340.04 328.78 333.16 329.37 325.07 C 330.64 316.15 323.03 306.85 313.86 307.24 C 301.57 307.51 289.32 306.70 277.03 306.88 C 249.35 306.87 221.66 306.88 193.98 306.88 C 184.72 307.64 175.41 306.95 166.14 307.35 C 157.15 308.33 150.71 318.25 153.02 326.93 Z" />
</g>
</svg>
